<?xml version="1.0" encoding="UTF-8" standalone="no"?>
<!DOCTYPE svg PUBLIC "-//W3C//DTD SVG 1.1//EN" "http://www.w3.org/Graphics/SVG/1.1/DTD/svg11.dtd">
<svg width="100%" height="100%" viewBox="0 0 800 800" version="1.1" xmlns="http://www.w3.org/2000/svg" xmlns:xlink="http://www.w3.org/1999/xlink" xml:space="preserve" xmlns:serif="http://www.serif.com/" style="fill-rule:evenodd;clip-rule:evenodd;stroke-linejoin:round;stroke-miterlimit:2;">
    <g transform="matrix(0.649106,0,0,0.649106,400,396.341)">
        <g id="twitter-x.svg" transform="matrix(1,0,0,1,-834.28,-610.595)">
            <g>
                <path d="M834.28,1105.93C767.42,1105.93 702.55,1092.83 641.47,1067C582.48,1042.05 529.51,1006.34 484.03,960.85C438.55,915.36 402.83,862.39 377.88,803.41C352.05,742.33 338.95,677.46 338.95,610.6C338.95,543.74 352.05,478.87 377.88,417.79C402.83,358.8 438.54,305.83 484.03,260.35C529.52,214.86 582.49,179.15 641.47,154.2C702.55,128.37 767.42,115.27 834.28,115.27C901.14,115.27 966.01,128.37 1027.09,154.2C1086.08,179.15 1139.05,214.86 1184.53,260.35C1230.02,305.84 1265.73,358.81 1290.68,417.79C1316.51,478.87 1329.61,543.74 1329.61,610.6C1329.61,677.46 1316.51,742.33 1290.68,803.41C1265.73,862.4 1230.02,915.37 1184.53,960.85C1139.04,1006.33 1086.07,1042.05 1027.09,1067C966.01,1092.83 901.14,1105.93 834.28,1105.93ZM834.28,143.26C576.59,143.26 366.95,352.9 366.95,610.59C366.95,868.28 576.59,1077.92 834.28,1077.92C1091.97,1077.92 1301.61,868.27 1301.61,610.59C1301.61,352.91 1091.97,143.26 834.28,143.26Z" style="fill-rule:nonzero;"/>
            </g>
            <g id="layer1" transform="matrix(1,0,0,1,52.3901,-25.0586)">
                <path id="path1009" d="M485.39,356.79L715.46,664.41L483.94,914.52L536.05,914.52L738.75,695.54L902.52,914.52L1079.84,914.52L836.82,589.6L1052.32,356.79L1000.21,356.79L813.54,558.46L662.71,356.79L485.39,356.79ZM562.02,395.17L643.48,395.17L1003.2,876.14L921.74,876.14L562.02,395.17Z" style="fill-rule:nonzero;stroke:rgb(29,29,27);stroke-width:1px;"/>
            </g>
        </g>
        <g id="twitter-x.svg1" serif:id="twitter-x.svg">
        </g>
    </g>
</svg>
